HIERARCHY
ROOT Hips
{
	OFFSET 0.000000 0.000000 0.000000
	CHANNELS 6 Xposition Yposition Zposition Zrotation Xrotation Yrotation
	JOINT Spine
	{
		OFFSET 0.000000 -0.000011 67.023643
		CHANNELS 6 Xposition Yposition Zposition Zrotation Xrotation Yrotation
		JOINT Spine1
		{
			OFFSET 0.000000 -0.000030 182.901688
			CHANNELS 6 Xposition Yposition Zposition Zrotation Xrotation Yrotation
			JOINT Neck
			{
				OFFSET 0.000000 -0.000032 199.248917
				CHANNELS 6 Xposition Yposition Zposition Zrotation Xrotation Yrotation
				JOINT Head
				{
					OFFSET 0.000000 -16.347250 126.691040
					CHANNELS 6 Xposition Yposition Zposition Zrotation Xrotation Yrotation
					End Site
					{
						OFFSET 0.000000 -0.000026 163.472275
					}
				}
			}
			JOINT LeftShoulder
			{
				OFFSET 32.919056 4.321093 160.883286
				CHANNELS 6 Xposition Yposition Zposition Zrotation Xrotation Yrotation
				JOINT LeftArm
				{
					OFFSET 117.464363 0.000000 0.000000
					CHANNELS 6 Xposition Yposition Zposition Zrotation Xrotation Yrotation
					JOINT LeftForeArm
					{
						OFFSET 230.328934 0.000000 0.000000
						CHANNELS 6 Xposition Yposition Zposition Zrotation Xrotation Yrotation
						JOINT LeftHand
						{
							OFFSET 214.060913 0.000000 0.000000
							CHANNELS 6 Xposition Yposition Zposition Zrotation Xrotation Yrotation
							End Site
							{
								OFFSET 122.604233 0.000000 0.000000
							}
						}
					}
				}
			}
			JOINT RightShoulder
			{
				OFFSET -32.464867 4.321093 160.883286
				CHANNELS 6 Xposition Yposition Zposition Zrotation Xrotation Yrotation
				JOINT RightArm
				{
					OFFSET -117.464333 0.000000 0.000000
					CHANNELS 6 Xposition Yposition Zposition Zrotation Xrotation Yrotation
					JOINT RightForeArm
					{
						OFFSET -230.328964 0.000000 0.000000
						CHANNELS 6 Xposition Yposition Zposition Zrotation Xrotation Yrotation
						JOINT RightHand
						{
							OFFSET -214.060913 0.000000 0.000000
							CHANNELS 6 Xposition Yposition Zposition Zrotation Xrotation Yrotation
							End Site
							{
								OFFSET -122.604233 0.000000 0.000000
							}
						}
					}
				}
			}
		}
	}
	JOINT LeftUpLeg
	{
		OFFSET 81.736153 0.000000 0.000000
		CHANNELS 6 Xposition Yposition Zposition Zrotation Xrotation Yrotation
		JOINT LeftLeg
		{
			OFFSET 0.000000 0.000056 -343.753815
			CHANNELS 6 Xposition Yposition Zposition Zrotation Xrotation Yrotation
			JOINT LeftFoot
			{
				OFFSET 0.000000 0.000059 -360.387390
				CHANNELS 6 Xposition Yposition Zposition Zrotation Xrotation Yrotation
				JOINT LeftToeBase
				{
					OFFSET 0.000000 -122.604233 -53.128510
					CHANNELS 6 Xposition Yposition Zposition Zrotation Xrotation Yrotation
					End Site
					{
						OFFSET 0.000000 -32.694462 0.000000
					}
				}
			}
		}
	}
	JOINT RightUpLeg
	{
		OFFSET -81.736153 0.000000 0.000000
		CHANNELS 6 Xposition Yposition Zposition Zrotation Xrotation Yrotation
		JOINT RightLeg
		{
			OFFSET 0.000000 0.000056 -343.753815
			CHANNELS 6 Xposition Yposition Zposition Zrotation Xrotation Yrotation
			JOINT RightFoot
			{
				OFFSET 0.000000 0.000059 -360.387390
				CHANNELS 6 Xposition Yposition Zposition Zrotation Xrotation Yrotation
				JOINT RightToeBase
				{
					OFFSET 0.000000 -122.604233 -53.128510
					CHANNELS 6 Xposition Yposition Zposition Zrotation Xrotation Yrotation
					End Site
					{
						OFFSET 0.000000 -32.694462 0.000000
					}
				}
			}
		}
	}
}
MOTION
Frames: 7
Frame Time: 0.041667
1004.000610 40.720444 723.960510 206.954786 -11.369044 3.764701 0.000007 -0.000008 67.023605 -2.256701 -12.630517 -5.174110 0.000022 -0.000041 182.901642 -0.405613 19.740963 -1.010180 -0.000035 -0.000041 199.249069 10.400904 11.030708 -7.589806 -0.000008 -16.347197 126.690926 11.660957 6.572725 11.639913 32.919064 4.321104 160.883362 -0.272344 -8.356076 -17.233105 117.464310 -0.000013 0.000001 -17.533442 -3.936491 25.359092 230.328918 -0.000023 0.000256 -20.720644 -10.245837 -14.585794 214.060928 0.000030 -0.000084 -1.363997 -12.928277 4.650812 -32.464993 4.321136 160.883408 -5.880614 -5.686436 16.077604 -117.464539 0.000021 0.000051 26.378442 19.339317 -21.156277 -230.328751 -0.000039 0.000146 80.731429 44.047548 48.117450 -214.060867 -0.000133 0.000148 5.249467 4.636217 26.857485 81.736168 -0.000003 0.000045 -15.870243 8.150918 8.219802 -0.000029 0.000035 -343.753967 169.861737 160.559005 -174.864154 -0.000009 0.000053 -360.387360 7.736790 -4.285606 -11.749724 0.000088 -122.604233 -53.128506 0.000000 -0.000001 0.000000 -81.736130 0.000027 0.000026 36.572494 -73.229279 31.821650 -0.000084 -0.000046 -343.753815 3.870374 67.200483 -58.560485 -0.000032 0.000046 -360.387390 -26.131844 3.063338 -5.151556 0.000022 -122.604286 -53.128559 0.000000 -0.000002 0.000000 
1002.216309 41.582344 723.488342 207.719317 -11.116734 3.498783 0.000174 -0.000035 67.023720 -2.369507 -12.767638 -5.022881 0.000057 -0.000096 182.901596 -0.474636 19.574941 -0.856113 -0.000210 -0.000007 199.248795 10.390824 10.991770 -7.509370 -0.000051 -16.347158 126.691093 11.642043 6.621964 11.551768 32.918880 4.321079 160.883194 -0.259870 -8.329604 -17.208431 117.464386 0.000041 -0.000038 -17.619081 -3.951613 25.374631 230.328918 0.000012 -0.000020 -20.740027 -10.315352 -14.628144 214.060867 -0.000021 -0.000021 -1.316019 -13.005154 4.627802 -32.465050 4.321126 160.883133 -5.981447 -5.669305 16.091249 -117.464539 -0.000039 0.000129 26.222285 19.107603 -21.073662 -230.328888 -0.000073 0.000017 81.185548 44.030241 47.674013 -214.060898 -0.000020 -0.000002 5.217201 4.724475 26.824222 81.736351 -0.000039 0.000095 -16.012798 7.904008 8.439542 0.000069 0.000042 -343.753754 169.770021 160.514705 -174.771427 0.000095 0.000032 -360.387360 7.241110 -4.253002 -11.764871 0.000011 -122.604263 -53.128506 -0.000000 -0.000002 -0.000000 -81.736122 0.000014 0.000029 34.501123 -72.804851 29.584182 -0.000025 0.000017 -343.753784 2.397902 66.313446 -56.710542 0.000139 0.000046 -360.387390 -25.745170 3.383220 -5.626693 0.000008 -122.604179 -53.128506 0.000000 0.000001 0.000003 
1000.381836 42.558765 723.002563 208.512425 -10.913187 3.253997 0.000016 0.000016 67.023590 -2.484026 -12.884532 -4.879492 -0.000038 -0.000013 182.901672 -0.544518 19.437767 -0.696561 -0.000221 -0.000000 199.249039 10.331892 11.029267 -7.484867 0.000154 -16.347467 126.691109 11.585534 6.554657 11.580359 32.919022 4.321077 160.883286 -0.283609 -8.277652 -17.229466 117.464485 -0.000025 0.000096 -17.650283 -4.133655 25.415504 230.328979 0.000012 -0.000102 -20.706053 -10.292771 -14.611421 214.060852 0.000031 0.000031 -1.339901 -12.976132 4.615042 -32.464924 4.321049 160.883392 -6.053469 -5.648755 16.069475 -117.464317 -0.000011 -0.000051 26.010808 18.906039 -20.976855 -230.328888 -0.000003 0.000087 81.586063 44.008736 47.297557 -214.060852 -0.000211 0.000102 5.254549 4.796387 26.822539 81.736145 0.000038 -0.000094 -15.988511 7.732624 8.668062 0.000066 0.000026 -343.753876 169.616943 160.424888 -174.779637 0.000014 0.000037 -360.387360 6.662111 -4.220028 -11.810709 0.000008 -122.604233 -53.128506 0.000000 -0.000001 -0.000000 -81.736099 0.000007 -0.000070 32.534356 -72.331184 27.434273 0.000092 0.000093 -343.753845 0.719769 65.585088 -54.602458 0.000021 0.000049 -360.387482 -25.237042 3.756365 -6.090239 -0.000006 -122.604164 -53.128506 0.000000 -0.000001 0.000000 
998.553284 43.452209 722.401855 209.282173 -10.693895 2.959217 0.000067 0.000001 67.023590 -2.554304 -12.989007 -4.677300 0.000074 -0.000013 182.901672 -0.598418 19.276542 -0.557232 -0.000107 -0.000048 199.248825 10.283251 11.025799 -7.459336 0.000013 -16.347288 126.690971 11.541256 6.510180 11.606581 32.919025 4.321078 160.883240 -0.352789 -8.266960 -17.217645 117.464401 0.000064 -0.000074 -17.641591 -4.263997 25.398234 230.328964 0.000015 0.000057 -20.672582 -10.255096 -14.550787 214.060928 -0.000056 0.000043 -1.340065 -12.923560 4.618204 -32.464897 4.321069 160.883209 -6.145782 -5.673275 16.075726 -117.464363 -0.000027 -0.000078 25.843189 18.758384 -20.950413 -230.328735 -0.000147 -0.000064 81.935004 44.014815 46.989632 -214.060791 0.000010 0.000057 5.202395 4.850983 26.812978 81.736191 0.000005 -0.000065 -16.057966 7.526203 8.904121 -0.000081 0.000033 -343.753845 169.806371 160.361299 -174.792587 0.000036 0.000036 -360.387360 5.832859 -4.180754 -11.907065 0.000094 -122.604248 -53.128510 0.000001 -0.000000 -0.000001 -81.736214 0.000034 -0.000035 30.833561 -71.852969 25.532967 0.000014 -0.000009 -343.753754 -0.576190 64.776326 -52.749872 -0.000034 0.000089 -360.387268 -24.784702 4.043130 -6.289108 0.000024 -122.604218 -53.128574 -0.000001 0.000003 -0.000003 
996.660767 44.387581 721.868469 210.102015 -10.494817 2.732091 0.000053 -0.000008 67.023788 -2.692861 -13.107081 -4.578248 0.000012 0.000014 182.901703 -0.680673 19.181499 -0.357807 -0.000049 -0.000089 199.248886 10.262946 10.963401 -7.402283 0.000001 -16.347258 126.690994 11.522072 6.492882 11.549747 32.919052 4.321049 160.883194 -0.336363 -8.224339 -17.233221 117.464523 0.000070 0.000036 -17.786574 -4.235786 25.428238 230.328995 0.000019 0.000078 -20.682315 -10.325689 -14.651770 214.060928 -0.000045 -0.000031 -1.291580 -13.010937 4.602175 -32.464939 4.321054 160.883270 -6.202644 -5.683202 16.083410 -117.464386 -0.000033 -0.000088 25.612981 18.501649 -20.919326 -230.328964 -0.000093 -0.000036 82.403330 44.006212 46.545178 -214.060760 -0.000029 0.000169 5.143194 4.948595 26.886189 81.736244 -0.000005 0.000058 -16.148329 7.438950 9.069439 -0.000052 0.000040 -343.753876 169.626122 160.373142 -174.688003 0.000051 0.000043 -360.387299 5.300975 -4.249727 -12.060436 0.000087 -122.604218 -53.128513 -0.000000 0.000001 -0.000000 -81.736053 0.000021 0.000118 29.106749 -71.277839 23.642679 0.000176 -0.000029 -343.753967 -2.069869 64.007048 -50.763165 -0.000008 0.000075 -360.387360 -24.266018 4.320842 -6.507167 0.000013 -122.604233 -53.128464 0.000000 0.000002 -0.000004 
994.762756 45.519928 721.305664 210.968875 -10.317618 2.527643 0.000046 0.000023 67.023712 -2.834404 -13.227683 -4.389316 -0.000061 -0.000034 182.901733 -0.742491 19.102670 -0.304047 -0.000125 0.000027 199.248993 10.212587 10.923518 -7.338403 0.000100 -16.347342 126.691093 11.474549 6.450863 11.527619 32.919010 4.321121 160.883408 -0.376456 -8.216367 -17.210362 117.464363 0.000060 -0.000125 -17.842295 -4.318729 25.447099 230.328979 -0.000080 0.000086 -20.680804 -10.321232 -14.656882 214.060928 0.000001 0.000050 -1.308103 -13.007405 4.555464 -32.464890 4.321133 160.883255 -6.353719 -5.642576 16.074799 -117.464294 0.000003 0.000024 25.556379 18.358106 -20.860537 -230.328964 0.000004 0.000037 82.854771 43.802587 46.349565 -214.060852 -0.000060 0.000074 5.785927 4.630114 26.360048 81.736168 0.000033 0.000057 -16.296558 7.351918 9.251403 -0.000057 0.000074 -343.753845 169.581863 160.382349 -174.670244 -0.000002 0.000052 -360.387390 4.653424 -4.257127 -12.141672 0.000042 -122.604233 -53.128506 0.000001 -0.000002 0.000000 -81.736099 -0.000014 0.000015 27.381923 -70.671544 21.738756 -0.000067 0.000081 -343.753845 -3.130781 63.187105 -48.969140 0.000066 0.000021 -360.387451 -23.595828 4.498245 -6.942788 -0.000015 -122.604149 -53.128574 0.000001 0.000005 0.000001 
992.833557 46.412342 720.654968 211.769018 -10.104146 2.289900 0.000038 -0.000003 67.023552 -2.934758 -13.358495 -4.275041 0.000002 -0.000055 182.901672 -0.810467 19.019731 -0.113965 0.000026 -0.000062 199.248901 10.168562 10.866875 -7.334364 0.000132 -16.347309 126.690834 11.443068 6.393853 11.578865 32.919037 4.321094 160.883362 -0.413440 -8.176028 -17.228971 117.464294 -0.000009 -0.000069 -17.865547 -4.476423 25.444582 230.328995 0.000019 0.000257 -20.674293 -10.282926 -14.649523 214.060852 0.000010 0.000000 -1.336611 -12.968562 4.571879 -32.464947 4.321074 160.883163 -6.445860 -5.630251 16.063365 -117.464249 -0.000044 -0.000038 25.334239 18.023397 -20.813627 -230.328934 0.000059 0.000177 83.259234 43.815766 45.898823 -214.060852 -0.000042 0.000110 5.616990 4.805638 26.474867 81.736084 0.000036 -0.000065 -16.314100 7.203722 9.433975 0.000094 0.000079 -343.753845 169.217732 160.365342 -174.535471 0.000108 0.000050 -360.387421 4.273569 -4.290011 -12.262102 0.000096 -122.604218 -53.128513 0.000000 0.000002 -0.000001 -81.736153 0.000007 -0.000136 25.839905 -70.112636 19.971328 0.000019 0.000065 -343.753937 -4.299105 62.357284 -47.015027 0.000079 0.000107 -360.387299 -23.173065 4.786380 -7.202960 -0.000028 -122.604218 -53.128403 -0.000002 0.000002 0.000001 
